<?xml version="1.0" encoding="utf-8"?>
<!-- Generator: Adobe Illustrator 27.0.0, SVG Export Plug-In . SVG Version: 6.00 Build 0)  -->
<svg version="1.1" id="Layer_1" xmlns="http://www.w3.org/2000/svg" xmlns:xlink="http://www.w3.org/1999/xlink" x="0px" y="0px"
	 viewBox="0 0 120 120" style="enable-background:new 0 0 120 120;" xml:space="preserve">
<style type="text/css">
	.st0{fill-rule:evenodd;clip-rule:evenodd;}
	.st1{fill-rule:evenodd;clip-rule:evenodd;fill:url(#SVGID_1_);}
	.st2{fill-rule:evenodd;clip-rule:evenodd;fill:#FCD0A9;}
	.st3{fill-rule:evenodd;clip-rule:evenodd;fill:url(#SVGID_00000016775291321929737900000000473544622581497020_);}
	.st4{fill-rule:evenodd;clip-rule:evenodd;fill:url(#SVGID_00000027599293902667419400000008231607833628316594_);}
	.st5{fill-rule:evenodd;clip-rule:evenodd;fill:url(#SVGID_00000028325690600962587080000002648237259396562328_);}
	.st6{fill-rule:evenodd;clip-rule:evenodd;fill:url(#SVGID_00000116928093336722437920000018388100669920978315_);}
	.st7{fill-rule:evenodd;clip-rule:evenodd;fill:url(#SVGID_00000135687433671967431330000002883099665823278746_);}
	.st8{fill-rule:evenodd;clip-rule:evenodd;fill:url(#SVGID_00000030463633024245357600000016163024071584736413_);}
	.st9{fill-rule:evenodd;clip-rule:evenodd;fill:#FFECDC;}
	.st10{fill-rule:evenodd;clip-rule:evenodd;fill:url(#SVGID_00000036243034056699529390000013258221759285147011_);}
	.st11{fill-rule:evenodd;clip-rule:evenodd;fill:url(#SVGID_00000137116729256029953790000001789685271162256305_);}
	.st12{fill-rule:evenodd;clip-rule:evenodd;fill:url(#SVGID_00000020380403880965736900000018339949815468329659_);}
	.st13{fill-rule:evenodd;clip-rule:evenodd;fill:url(#SVGID_00000081617166451247350460000005063762689399901351_);}
	.st14{fill-rule:evenodd;clip-rule:evenodd;fill:url(#SVGID_00000024687215822238919110000002300825377450089126_);}
	.st15{fill-rule:evenodd;clip-rule:evenodd;fill:url(#SVGID_00000163767523394315980860000005450525250780826514_);}
	.st16{fill-rule:evenodd;clip-rule:evenodd;fill:url(#SVGID_00000012471016813067525990000016722650529153176997_);}
	.st17{fill-rule:evenodd;clip-rule:evenodd;fill:url(#SVGID_00000000930461602254868890000002954505489594705821_);}
</style>
<path d="M60,108.1c25.8,0,46.8-20.9,46.8-46.7S85.8,14.7,60,14.7c-25.8,0-46.8,20.9-46.8,46.7S34.2,108.1,60,108.1z"/>
<path class="st0" d="M60,77.7c41-0.4,60-2.6,60-15.8s-15-14.1-60-16.2c-45,2.1-60,3-60,16.2S19,77.3,60,77.7z"/>
<linearGradient id="SVGID_1_" gradientUnits="userSpaceOnUse" x1="60" y1="104.0001" x2="60" y2="17.4001" gradientTransform="matrix(1 0 0 -1 0 122)">
	<stop  offset="0" style="stop-color:#FFECDD"/>
	<stop  offset="1" style="stop-color:#DA8031"/>
</linearGradient>
<path class="st1" d="M60,18c24.4,0,44.2,19.4,44.2,43.3S84.3,104.6,60,104.6S15.8,85.2,15.8,61.3S35.6,18,60,18z M60,20.8
	c-22.5,0-40.6,18.1-40.6,40.5s18.2,40.5,40.6,40.5s40.6-18.1,40.6-40.5S82.4,20.8,60,20.8z"/>
<path class="st2" d="M60.1,19.9c22.8,0,41.3,18.5,41.3,41.2s-18.5,41.2-41.3,41.2S18.7,83.9,18.7,61.1S37.2,19.9,60.1,19.9z
	 M60.1,20.8c-22.5,0-40.6,18.1-40.6,40.5s18.2,40.5,40.6,40.5s40.6-18.1,40.6-40.5S82.5,20.8,60.1,20.8z"/>
<linearGradient id="SVGID_00000033371431895566167860000011214722538859955585_" gradientUnits="userSpaceOnUse" x1="60" y1="35.9659" x2="60" y2="76.0255" gradientTransform="matrix(1 0 0 -1 0 122)">
	<stop  offset="0" style="stop-color:#000000;stop-opacity:0"/>
	<stop  offset="0.1414" style="stop-color:#000000"/>
	<stop  offset="0.7705" style="stop-color:#000000"/>
	<stop  offset="1" style="stop-color:#000000;stop-opacity:0"/>
</linearGradient>
<path style="fill-rule:evenodd;clip-rule:evenodd;fill:url(#SVGID_00000033371431895566167860000011214722538859955585_);" d="
	M60,18c24.4,0,44.2,19.4,44.2,43.3S84.3,104.6,60,104.6S15.8,85.2,15.8,61.3S35.6,18,60,18z M60,20.8c-22.5,0-40.6,18.1-40.6,40.5
	s18.2,40.5,40.6,40.5s40.6-18.1,40.6-40.5S82.4,20.8,60,20.8z"/>
<path class="st2" d="M60.1,19.5c23.1,0,41.8,18.7,41.8,41.8s-18.7,41.8-41.8,41.8S18.2,84.4,18.2,61.3S36.9,19.5,60.1,19.5z
	 M60.1,19.9c-23,0-41.6,18.5-41.6,41.4s18.6,41.4,41.5,41.4s41.5-18.5,41.5-41.4S83,19.9,60.1,19.9z"/>
<linearGradient id="SVGID_00000119837643657551257610000011457557013094988465_" gradientUnits="userSpaceOnUse" x1="60" y1="35.9659" x2="60" y2="74.1471" gradientTransform="matrix(1 0 0 -1 0 122)">
	<stop  offset="0" style="stop-color:#000000;stop-opacity:0"/>
	<stop  offset="0.3293" style="stop-color:#000000"/>
	<stop  offset="0.6765" style="stop-color:#000000"/>
	<stop  offset="1" style="stop-color:#000000;stop-opacity:0"/>
</linearGradient>
<path style="fill-rule:evenodd;clip-rule:evenodd;fill:url(#SVGID_00000119837643657551257610000011457557013094988465_);" d="
	M60,18c24.4,0,44.2,19.4,44.2,43.3S84.3,104.6,60,104.6S15.8,85.2,15.8,61.3S35.6,18,60,18z M60,20.8c-22.5,0-40.6,18.1-40.6,40.5
	s18.2,40.5,40.6,40.5s40.6-18.1,40.6-40.5S82.4,20.8,60,20.8z"/>
<linearGradient id="SVGID_00000142140686933800337020000010757660099854439852_" gradientUnits="userSpaceOnUse" x1="75.5147" y1="43.6499" x2="44.1763" y2="43.6499" gradientTransform="matrix(1 0 0 -1 0 122)">
	<stop  offset="0" style="stop-color:#000000;stop-opacity:0"/>
	<stop  offset="0.5" style="stop-color:#000000"/>
	<stop  offset="1" style="stop-color:#000000;stop-opacity:0"/>
</linearGradient>
<path style="fill-rule:evenodd;clip-rule:evenodd;fill:url(#SVGID_00000142140686933800337020000010757660099854439852_);" d="
	M16.4,58.3c0,24,19.5,43.5,43.6,43.5s43.6-19.5,43.6-43.5c0-2.1-0.2-4.2-0.4-6.2c0.7,3,1,6.1,1,9.3c0,23.9-19.8,43.3-44.2,43.3
	S15.8,85.2,15.8,61.3c0-3.2,0.3-6.3,1-9.3C16.5,54.1,16.4,56.1,16.4,58.3z"/>
<linearGradient id="SVGID_00000012452025638883571940000013772915504674414505_" gradientUnits="userSpaceOnUse" x1="67.9649" y1="77.5501" x2="51.7173" y2="77.5501" gradientTransform="matrix(1 0 0 -1 0 122)">
	<stop  offset="0" style="stop-color:#000000;stop-opacity:0"/>
	<stop  offset="0.4" style="stop-color:#000000"/>
	<stop  offset="0.6" style="stop-color:#000000"/>
	<stop  offset="1" style="stop-color:#000000;stop-opacity:0"/>
</linearGradient>
<path style="fill-rule:evenodd;clip-rule:evenodd;fill:url(#SVGID_00000012452025638883571940000013772915504674414505_);" d="
	M60,18c24.4,0,44.2,19.4,44.2,43.3c0,3.3-0.4,6.5-1.1,9.6c0.4-2.2,0.5-4.5,0.5-6.8c0-24-19.5-43.5-43.6-43.5S16.4,40.1,16.4,64.1
	c0,2.3,0.2,4.6,0.5,6.8c-0.7-3.1-1.1-6.3-1.1-9.6C15.8,37.4,35.6,18,60,18z"/>
<path class="st0" d="M60,75.6c39.2-0.4,57.4-2.3,57.4-14.1S103,48.9,60,47C17,48.9,2.6,49.7,2.6,61.5S20.7,75.2,60,75.6z"/>
<linearGradient id="SVGID_00000168822488160167641880000014058628194387478688_" gradientUnits="userSpaceOnUse" x1="60" y1="73.7999" x2="60" y2="47.08" gradientTransform="matrix(1 0 0 -1 0 122)">
	<stop  offset="0" style="stop-color:#FFECDD"/>
	<stop  offset="1" style="stop-color:#DA8031"/>
</linearGradient>
<path style="fill-rule:evenodd;clip-rule:evenodd;fill:url(#SVGID_00000168822488160167641880000014058628194387478688_);" d="
	M35.5,48.2v0.3c-22,2.6-27.1,6.8-27.1,13c0,6,7,11,27.2,13.2V75C13.2,73.7,2.7,70.4,2.7,61.5C2.7,52.3,11.4,49.8,35.5,48.2z
	 M84.6,48.2c24.1,1.6,32.8,4.1,32.8,13.3c0,9-10.5,12.2-32.8,13.5v-0.3c20.1-2.2,27.2-7.2,27.2-13.2c0-6.2-5.2-10.4-27.2-12.9V48.2z
	"/>
<linearGradient id="SVGID_00000088124530690119616910000007206766189295415985_" gradientUnits="userSpaceOnUse" x1="60" y1="47.1001" x2="60" y2="73.6628" gradientTransform="matrix(1 0 0 -1 0 122)">
	<stop  offset="0" style="stop-color:#FFECDD"/>
	<stop  offset="1" style="stop-color:#DA8031"/>
</linearGradient>
<path style="fill-rule:evenodd;clip-rule:evenodd;fill:url(#SVGID_00000088124530690119616910000007206766189295415985_);" d="
	M35.4,48.3v0.3c-22,2.5-27.1,6.7-27.1,12.9c0,6,7,11,27.2,13.2v0.2c-20.4-1.3-30-4.6-30-13.4C5.4,52.5,13.4,49.9,35.4,48.3z
	 M84.5,48.3c22,1.6,30,4.2,30,13.2c0,8.8-9.6,12.1-30,13.4v-0.2c20.1-2.2,27.2-7.2,27.2-13.2c0-6.2-5.2-10.4-27.2-12.9V48.3z"/>
<path class="st9" d="M35.5,48.3C13.6,49.9,5.7,52.5,5.7,61.5c0,8.8,9.5,12.1,29.8,13.4C15,73.6,5.3,70.3,5.3,61.5
	C5.3,52.5,13.4,49.9,35.5,48.3z M84.6,48.3c22.2,1.6,30.2,4.2,30.2,13.2c0,8.8-9.7,12.1-30.2,13.4c20.3-1.3,29.8-4.6,29.8-13.4
	C114.3,52.5,106.4,49.9,84.6,48.3z"/>
<linearGradient id="SVGID_00000005954919956245357840000009942762509972852352_" gradientUnits="userSpaceOnUse" x1="60" y1="114" x2="60" y2="67.0927" gradientTransform="matrix(1 0 0 -1 0 122)">
	<stop  offset="0" style="stop-color:#DD8B42"/>
	<stop  offset="0.5" style="stop-color:#E6A56B"/>
	<stop  offset="1" style="stop-color:#815229"/>
</linearGradient>
<path style="fill-rule:evenodd;clip-rule:evenodd;fill:url(#SVGID_00000005954919956245357840000009942762509972852352_);" d="M60,8
	l4.8,35c0.5,4,3.2,7.4,6.9,8.9l8,3.3c-5.8-0.3-12.3-0.6-19.7-0.9c-7.4,0.3-13.9,0.6-19.7,0.9l8-3.3c3.7-1.5,6.3-4.9,6.9-8.9L60,8z"
	/>
<linearGradient id="SVGID_00000149362239463887891950000013776498805732160184_" gradientUnits="userSpaceOnUse" x1="60" y1="66.8" x2="60" y2="114" gradientTransform="matrix(1 0 0 -1 0 122)">
	<stop  offset="0" style="stop-color:#F0C6A1"/>
	<stop  offset="1" style="stop-color:#DA8031"/>
</linearGradient>
<path style="fill-rule:evenodd;clip-rule:evenodd;fill:url(#SVGID_00000149362239463887891950000013776498805732160184_);" d="M60,8
	l4.8,35c0.5,4,3.2,7.4,6.9,8.9l8,3.3c-2.1-0.1-4.2-0.2-6.5-0.3l-2.9-1.1c-4-1.5-6.8-5.2-7.2-9.5L60,9.9l-3.1,34.4
	c-0.4,4.3-3.2,8-7.2,9.5l-2.8,1.1c-2.4,0.1-4.5,0.2-6.6,0.3l8-3.3c3.7-1.5,6.3-4.9,6.9-8.9L60,8z"/>
<linearGradient id="SVGID_00000069362484802162460590000009238636614010765707_" gradientUnits="userSpaceOnUse" x1="60" y1="84.0742" x2="60" y2="67.098" gradientTransform="matrix(1 0 0 -1 0 122)">
	<stop  offset="0" style="stop-color:#A96121"/>
	<stop  offset="1" style="stop-color:#2E2926"/>
</linearGradient>
<path style="fill-rule:evenodd;clip-rule:evenodd;fill:url(#SVGID_00000069362484802162460590000009238636614010765707_);" d="
	M60,37.9l1.9,11.4c0.4,2.5,2.4,4.4,4.9,4.7l8.8,1.1c-2.4-0.1-4.9-0.2-7.6-0.4l-3.8-0.4c-1.8-0.2-3.2-1.6-3.4-3.4L60,41.7l-0.8,9.2
	c-0.2,1.8-1.6,3.2-3.4,3.4L52,54.7c-2.7,0.1-5.3,0.2-7.7,0.3l8.8-1.1c2.5-0.3,4.5-2.2,4.9-4.7L60,37.9z"/>
<linearGradient id="SVGID_00000178203297063885429490000016255258181616642192_" gradientUnits="userSpaceOnUse" x1="60" y1="80.2999" x2="60" y2="67.4209" gradientTransform="matrix(1 0 0 -1 0 122)">
	<stop  offset="0" style="stop-color:#9B683A"/>
	<stop  offset="0.9959" style="stop-color:#000000"/>
</linearGradient>
<path style="fill-rule:evenodd;clip-rule:evenodd;fill:url(#SVGID_00000178203297063885429490000016255258181616642192_);" d="
	M60.1,41.7l0.8,9.2c0.2,1.8,1.6,3.2,3.4,3.4l3.8,0.4c-2.6-0.1-5.3-0.2-8.1-0.4c-2.8,0.1-5.5,0.2-8.1,0.4l3.8-0.4
	c1.8-0.2,3.2-1.6,3.4-3.4L60.1,41.7z"/>
<linearGradient id="SVGID_00000151516412167343557260000000928491799443574707_" gradientUnits="userSpaceOnUse" x1="60" y1="85.9625" x2="60" y2="67.8625" gradientTransform="matrix(1 0 0 -1 0 122)">
	<stop  offset="0" style="stop-color:#CD905A"/>
	<stop  offset="1" style="stop-color:#FFECDC"/>
</linearGradient>
<path style="fill-rule:evenodd;clip-rule:evenodd;fill:url(#SVGID_00000151516412167343557260000000928491799443574707_);" d="
	M60.3,36l2.3,13.1c0.4,2.4,2.3,4.2,4.6,4.6l2.1,0.4l-2.1-0.3c-2.5-0.3-4.5-2.2-5.1-4.6V49l-1.8-9.2l-1.7,9.1
	c-0.5,2.6-2.6,4.6-5.2,4.9l-2.7,0.3l2.6-0.4c2.4-0.4,4.2-2.2,4.6-4.6L60.3,36z"/>
<path class="st9" d="M60.9,29.2l2.3,15.5c0.6,3.9,3.1,7.1,6.7,8.7l2.8,1.2l-2.7-1c-1.2-0.5-2.3-1.1-3.3-1.9
	c-2.1-1.8-3.5-4.3-3.9-7.2L60.9,29.2z M59.2,29.2l-2,15.3c-0.4,2.8-1.8,5.4-3.9,7.2c-1,0.8-2.1,1.4-3.3,1.9l-2.7,1l2.8-1.2
	c3.6-1.6,6.1-4.8,6.7-8.7L59.2,29.2z"/>
<path class="st9" d="M60,38.1l-0.4-15L60,8l0.4,15.1L60,38.1z"/>
<path class="st9" d="M60,8l-4.3,38L60,11.4L64.3,46L60,8z"/>
<linearGradient id="SVGID_00000158001800419213051650000016670065638769654187_" gradientUnits="userSpaceOnUse" x1="60" y1="64.8871" x2="60" y2="10.8749" gradientTransform="matrix(1 0 0 -1 0 122)">
	<stop  offset="0" style="stop-color:#C75E00"/>
	<stop  offset="0.5" style="stop-color:#C9976B"/>
	<stop  offset="1" style="stop-color:#934A09"/>
</linearGradient>
<path style="fill-rule:evenodd;clip-rule:evenodd;fill:url(#SVGID_00000158001800419213051650000016670065638769654187_);" d="
	M98.2,64.3l0.2,0.2c0,0,0,0,0.1,0c0,0.5-8.5,1.3-25.4,2.3c-4.8,0.3-8.6,4.2-8.9,9c-0.7,14.3-2.1,26.2-4.2,35.7
	c-2.1-9.3-3.4-20.8-4.2-34.7l-0.1-1c-0.2-4.8-4.1-8.7-8.9-9c-16.8-1-25.3-1.8-25.3-2.4h0.1c5.3-5.1,20.2-7.2,37.8-7.3H60
	C77.7,57.1,92.7,59.2,98.2,64.3z"/>
<linearGradient id="SVGID_00000044135345296110597150000004315903309394373012_" gradientUnits="userSpaceOnUse" x1="60" y1="64.8871" x2="60" y2="10.487" gradientTransform="matrix(1 0 0 -1 0 122)">
	<stop  offset="0" style="stop-color:#553313"/>
	<stop  offset="0.2" style="stop-color:#FCAF6B"/>
	<stop  offset="0.4" style="stop-color:#EEBE95"/>
	<stop  offset="1" style="stop-color:#DA8031"/>
</linearGradient>
<path style="fill-rule:evenodd;clip-rule:evenodd;fill:url(#SVGID_00000044135345296110597150000004315903309394373012_);" d="
	M98.2,64.3l0.2,0.2c0,0,0,0,0.1,0c0,0.6-9.5,1.2-28.5,1.8c-4.1,0.1-7.3,3.5-7.3,7.5c0,15.3-0.9,27.9-2.7,37.7
	c-1.7-9.6-2.6-21.8-2.7-36.7v-1c0-4.1-3.2-7.4-7.3-7.5c-19-0.7-28.5-1.3-28.5-1.9h0.1c5.3-5.1,20.2-7.2,37.8-7.3H60
	C77.7,57.1,92.7,59.2,98.2,64.3z"/>
<path class="st9" d="M60,111.7l-0.4-51.8h0.8L60,111.7z"/>
<path class="st9" d="M21.5,64.5c0.6,0.5,10.2,1.1,28.9,1.6c4.1,0.1,7.4,3.5,7.3,7.7v1c-0.2,14.9,0.6,27.1,2.3,36.7
	c1.7-9.8,2.5-22.3,2.3-37.7c-0.1-4.2,3.2-7.6,7.3-7.7h0.6c18.5-0.5,27.9-1.1,28.3-1.6C97.9,65,88.4,65.6,70,66.3
	c-4.1,0.1-7.3,3.5-7.3,7.6c0,0.7,0,1.4,0,2.1v1.5c0,5.3,0,8.9-0.1,10.8c-0.4,9-1.4,16.7-2.5,23.3c-1.2-6.5-2.1-14.3-2.5-23.3
	c-0.1-1.9-0.1-5.5-0.1-10.8V76c0-0.5,0-1,0-1.6v-0.5c0-4.1-3.2-7.4-7.3-7.6C31.4,65.6,21.9,65,21.5,64.5z"/>
<linearGradient id="SVGID_00000028315322817996942060000007232766200395331993_" gradientUnits="userSpaceOnUse" x1="21.55" y1="61.2371" x2="98.45" y2="61.2371" gradientTransform="matrix(1 0 0 -1 0 122)">
	<stop  offset="0" style="stop-color:#DA8031"/>
	<stop  offset="0.5" style="stop-color:#FFECDD"/>
	<stop  offset="1" style="stop-color:#DA8031"/>
</linearGradient>
<path style="fill-rule:evenodd;clip-rule:evenodd;fill:url(#SVGID_00000028315322817996942060000007232766200395331993_);" d="
	M60,57.1c17.9,0,33,2.2,38.4,7.3h-0.2c-5.6-3.2-20.6-4.5-38.2-4.5s-32.6,1.4-38.2,4.5h-0.3C27,59.3,42.2,57.1,60,57.1z"/>
<path class="st9" d="M60.7,59.5c16.8,0,31.2,1.3,37.1,4.3c0.3,0.2,0.5,0.4,0.7,0.6h-0.2c-5.5-3.1-20.2-4.5-37.6-4.5H60
	c-17.5,0-32.5,1.4-38.1,4.5h-0.3c0.2-0.2,0.5-0.4,0.7-0.6c6-3,20.6-4.3,37.7-4.3H60.7z"/>
<path class="st9" d="M98.4,64.4h-0.2c-0.2-0.1-0.3-0.2-0.5-0.3c-6-4.7-20.6-6.7-37.7-6.7s-31.8,2-37.7,6.7c-0.2,0.2-0.4,0.2-0.5,0.3
	h-0.3c5.4-5.1,20.3-7.2,37.9-7.3H60C77.9,57.1,93,59.3,98.4,64.4z"/>
</svg>
